# Exported from Wings 3D 2.2.9
mtllib escena_0.mtl
o Cube2_copy4
#8 vertices, 6 faces
v 1.98307078 0.14427651 -0.59236975
v 1.98307078 0.14427651 0.33563025
v 1.98307078 1.07227651 -0.59236975
v 1.98307078 1.07227651 0.33563025
v 2.91107078 0.14427651 -0.59236975
v 2.91107078 0.14427651 0.33563025
v 2.91107078 1.07227651 -0.59236975
v 2.91107078 1.07227651 0.33563025
vn -0.57735027 -0.57735027 -0.57735027
vn -0.57735027 -0.57735027 0.57735027
vn -0.57735027 0.57735027 -0.57735027
vn -0.57735027 0.57735027 0.57735027
vn 0.57735027 -0.57735027 -0.57735027
vn 0.57735027 -0.57735027 0.57735027
vn 0.57735027 0.57735027 -0.57735027
vn 0.57735027 0.57735027 0.57735027
g Cube2_copy4_default
usemtl default
s 1
f 1//1 5//5 6//6 2//2
f 2//2 4//4 3//3 1//1
f 2//2 6//6 8//8 4//4
f 3//3 7//7 5//5 1//1
f 4//4 8//8 7//7 3//3
f 5//5 7//7 8//8 6//6
o Cube2_copy3
#8 vertices, 6 faces
v -1.65322036 0.22919628 -0.42112363
v -1.65322036 0.22919628 0.50687637
v -1.65322036 1.15719628 -0.42112363
v -1.65322036 1.15719628 0.50687637
v -0.72522036 0.22919628 -0.42112363
v -0.72522036 0.22919628 0.50687637
v -0.72522036 1.15719628 -0.42112363
v -0.72522036 1.15719628 0.50687637
vn -0.57735027 -0.57735027 -0.57735027
vn -0.57735027 -0.57735027 0.57735027
vn -0.57735027 0.57735027 -0.57735027
vn -0.57735027 0.57735027 0.57735027
vn 0.57735027 -0.57735027 -0.57735027
vn 0.57735027 -0.57735027 0.57735027
vn 0.57735027 0.57735027 -0.57735027
vn 0.57735027 0.57735027 0.57735027
g Cube2_copy3_default
usemtl default
s 1
f 9//9 13//13 14//14 10//10
f 10//10 12//12 11//11 9//9
f 10//10 14//14 16//16 12//12
f 11//11 15//15 13//13 9//9
f 12//12 16//16 15//15 11//11
f 13//13 15//15 16//16 14//14
o Cube2
#8 vertices, 6 faces
v -0.46400000 0.18480640 -0.46400000
v -0.46400000 0.18480640 0.46400000
v -0.46400000 1.11280640 -0.46400000
v -0.46400000 1.11280640 0.46400000
v 0.46400000 0.18480640 -0.46400000
v 0.46400000 0.18480640 0.46400000
v 0.46400000 1.11280640 -0.46400000
v 0.46400000 1.11280640 0.46400000
vn -0.57735027 -0.57735027 -0.57735027
vn -0.57735027 -0.57735027 0.57735027
vn -0.57735027 0.57735027 -0.57735027
vn -0.57735027 0.57735027 0.57735027
vn 0.57735027 -0.57735027 -0.57735027
vn 0.57735027 -0.57735027 0.57735027
vn 0.57735027 0.57735027 -0.57735027
vn 0.57735027 0.57735027 0.57735027
g Cube2_default
usemtl default
s 1
f 17//17 21//21 22//22 18//18
f 18//18 20//20 19//19 17//17
f 18//18 22//22 24//24 20//20
f 19//19 23//23 21//21 17//17
f 20//20 24//24 23//23 19//19
f 21//21 23//23 24//24 22//22
o Cube1
#8 vertices, 6 faces
v -4.67600000 6.5265778e-2 -4.67600000
v -4.67600000 6.5265778e-2 4.67600000
v -4.67600000 9.4734222e-2 -4.67600000
v -4.67600000 9.4734222e-2 4.67600000
v 4.67600000 6.5265778e-2 -4.67600000
v 4.67600000 6.5265778e-2 4.67600000
v 4.67600000 9.4734222e-2 -4.67600000
v 4.67600000 9.4734222e-2 4.67600000
vn -0.57735027 -0.57735027 -0.57735027
vn -0.57735027 -0.57735027 0.57735027
vn -0.57735027 0.57735027 -0.57735027
vn -0.57735027 0.57735027 0.57735027
vn 0.57735027 -0.57735027 -0.57735027
vn 0.57735027 -0.57735027 0.57735027
vn 0.57735027 0.57735027 -0.57735027
vn 0.57735027 0.57735027 0.57735027
g Cube1_default
usemtl default
s 1
f 25//25 29//29 30//30 26//26
f 26//26 28//28 27//27 25//25
f 26//26 30//30 32//32 28//28
f 27//27 31//31 29//29 25//25
f 28//28 32//32 31//31 27//27
f 29//29 31//31 32//32 30//30
