# Exported from Wings 3D 2.2.4
mtllib ./ojo.mtl
o Cube1
#110 vertices, 108 faces
v -0.50925926 -0.50925926 -0.58026963
v -0.50925926 -0.50925926 0.50925926
v -0.50925926 0.50925926 -0.58026963
v -0.50925926 0.50925926 0.50925926
v 0.50925926 -0.50925926 -0.58026963
v 0.50925926 -0.50925926 0.50925926
v 0.50925926 0.50925926 -0.58026963
v 0.50925926 0.50925926 0.50925926
v -0.64322917 -0.64322917 -3.4694470e-18
v -0.64322917 -1.7173500e-18 -0.58026963
v -4.6323705e-19 -0.60033785 -0.65566318
v -0.64322917 -3.4694470e-18 0.64322917
v -3.4694470e-18 -0.64322917 0.64322917
v -1.11870662 1.11870662 -3.4694470e-18
v -4.6323705e-19 0.60033785 -0.65566318
v -3.4694470e-18 0.64322917 0.64322917
v 0.64322917 -0.64322917 -3.4694470e-18
v 0.64322917 -1.7173500e-18 -0.58026963
v 0.64322917 -3.4694470e-18 0.64322917
v 1.11870662 1.11870662 -3.4694470e-18
v 0.0000000e+0 0.87847222 3.4694470e-18
v 0.0000000e+0 -0.87847222 -3.4694470e-18
v 0.0000000e+0 -3.4694470e-18 0.87847222
v -2.6441376e-19 -7.2200255e-19 -0.83356681
v 0.87847222 0.0000000e+0 -3.4694470e-18
v -0.87847222 0.0000000e+0 3.4694470e-18
v -0.59895833 -0.59895833 -0.50910452
v -0.59895833 -0.30208333 -0.58026963
v -9.3525000e-2 -0.42391012 -0.65566318
v -0.59895833 -0.30208333 0.59895833
v -0.30208333 -0.59895833 0.59895833
v -0.59895833 0.59895833 -0.50910452
v -9.3525000e-2 0.42391012 -0.65566318
v -0.30208333 0.59895833 0.59895833
v 0.59895833 -0.59895833 -0.50910452
v 0.59895833 -0.30208333 -0.58026963
v 0.59895833 -0.30208333 0.59895833
v 0.59895833 0.59895833 -0.50910452
v -0.59895833 -0.59895833 0.30208333
v -0.59895833 0.30208333 -0.58026963
v 9.3525000e-2 -0.42391012 -0.65566318
v -0.59895833 0.30208333 0.59895833
v 0.30208333 -0.59895833 0.59895833
v -0.59895833 0.59895833 0.30208333
v 9.3525000e-2 0.42391012 -0.65566318
v 0.30208333 0.59895833 0.59895833
v 0.59895833 -0.59895833 0.30208333
v 0.59895833 0.30208333 -0.58026963
v 0.59895833 0.30208333 0.59895833
v 0.59895833 0.59895833 0.30208333
v 0.0000000e+0 0.81944444 0.35069444
v -0.35069444 0.81944444 0.0000000e+0
v 1.0346712e-18 0.81944444 -0.50910452
v 0.35069444 0.81944444 0.0000000e+0
v 1.0346712e-18 -0.81944444 -0.50910452
v -0.35069444 -0.81944444 0.0000000e+0
v 0.0000000e+0 -0.81944444 0.35069444
v 0.35069444 -0.81944444 0.0000000e+0
v 0.0000000e+0 -0.35069444 0.81944444
v -0.35069444 0.0000000e+0 0.81944444
v 0.0000000e+0 0.35069444 0.81944444
v 0.35069444 0.0000000e+0 0.81944444
v -2.6441376e-19 0.14893922 -0.82258344
v -0.10857500 4.6479310e-18 -0.65566318
v -2.6441376e-19 -0.14893922 -0.82258344
v 0.10857500 4.6479310e-18 -0.65566318
v 0.81944444 -2.0693425e-18 -0.50910452
v 0.81944444 -0.35069444 0.0000000e+0
v 0.81944444 0.0000000e+0 0.35069444
v 0.81944444 0.35069444 0.0000000e+0
v -0.81944444 0.0000000e+0 0.35069444
v -0.81944444 -0.35069444 0.0000000e+0
v -0.81944444 -2.0693425e-18 -0.50910452
v -0.81944444 0.35069444 0.0000000e+0
v -0.32638889 0.76388889 0.32638889
v -0.32638889 0.76388889 -0.50910452
v 0.32638889 0.76388889 -0.50910452
v 0.32638889 0.76388889 0.32638889
v -0.32638889 -0.76388889 -0.50910452
v -0.32638889 -0.76388889 0.32638889
v 0.32638889 -0.76388889 0.32638889
v 0.32638889 -0.76388889 -0.50910452
v -0.32638889 -0.32638889 0.76388889
v -0.32638889 0.32638889 0.76388889
v 0.32638889 0.32638889 0.76388889
v 0.32638889 -0.32638889 0.76388889
v -0.10105000 0.23100030 -0.65566318
v -0.10105000 -0.23100030 -0.65566318
v 0.10105000 -0.23100030 -0.65566318
v 0.10105000 0.23100030 -0.65566318
v 0.76388889 -0.32638889 -0.50910452
v 0.76388889 -0.32638889 0.32638889
v 0.76388889 0.32638889 0.32638889
v 0.76388889 0.32638889 -0.50910452
v -0.76388889 -0.32638889 0.32638889
v -0.76388889 -0.32638889 -0.50910452
v -0.76388889 0.32638889 -0.50910452
v -0.76388889 0.32638889 0.32638889
v 8.4040264e-20 -0.46242097 -0.72108171
v 8.4040264e-20 0.46242097 -0.72108171
v -8.8179276e-2 -4.1101323e-20 -0.79836141
v 8.8179276e-2 -4.1101323e-20 -0.79836141
v -7.9528759e-2 0.18139748 -0.78536674
v -7.9528759e-2 -0.18139748 -0.78536674
v 7.9528759e-2 -0.18139748 -0.78536674
v 7.9528759e-2 0.18139748 -0.78536674
v 7.0710207e-2 0.33079837 -0.74528983
v -7.0710207e-2 -0.33079837 -0.74528983
v 7.0710207e-2 -0.33079837 -0.74528983
v -7.0710207e-2 0.33079837 -0.74528983
vt 5.9335296e-3 0.32581682
vt 9.8578332e-3 0.66392080
vt 2.2778752e-2 0.22685114
vt 2.3164113e-2 0.42479021
vt 6.1304477e-2 0.98592012
vt 6.3060501e-2 0.32569584
vt 7.3289450e-2 0.14391015
vt 7.4175232e-2 0.50774962
vt 7.6480076e-2 0.23596979
vt 7.6907849e-2 0.41540441
vt 0.10389328 0.17488496
vt 0.10469349 0.47643849
vt 0.15680913 9.4441979e-2
vt 0.15838021 0.55654734
vt 0.19173403 0.57413795
vt 0.22147714 0.32523735
vt 0.22384196 0.25828265
vt 0.22419015 0.39216079
vt 0.22678527 0.20265873
vt 0.22746790 0.44770594
vt 0.24927270 0.68627212
vt 0.25602781 7.6078337e-2
vt 0.25639378 0.15366957
vt 0.25747328 0.49633506
vt 0.25783925 0.57392629
vt 0.28639916 0.20229869
vt 0.28708179 0.44734589
vt 0.28967691 0.25784384
vt 0.29002510 0.39172198
vt 0.29238992 0.32476728
vt 0.35548685 9.3457292e-2
vt 0.35705793 0.55556265
vt 0.37359742 0.89209346
vt 0.37527183 0.68927062
vt 0.39466411 0.69287080
vt 0.39633852 0.89569364
vt 0.40917356 0.17356613
vt 0.40997378 0.47511967
vt 0.43695921 0.23460021
vt 0.43738698 0.41403484
vt 0.43969183 0.14225501
vt 0.44057761 0.50609448
vt 0.45080656 0.32430879
vt 0.49070295 0.22521441
vt 0.49108831 0.42315349
vt 0.50273004 0.25091631
vt 0.50793353 0.32418781
vt 0.52066324 0.68987229
vt 0.57820192 0.57773812
vt 0.57835678 6.5898109e-2
vt 0.59137159 0.45943559
vt 0.60986786 0.14087759
vt 0.62619064 4.4215911e-2
vt 0.63269847 0.33692755
vt 0.64600405 0.23188546
vt 0.65350501 0.17762826
vt 0.65487896 0.11131243
vt 0.66994189 0.48044193
vt 0.67143731 0.28379296
vt 0.67452799 2.6905597e-2
vt 0.68110229 0.22424559
vt 0.68163700 0.14571184
vt 0.69189989 0.19547756
vt 0.69402281 9.1420734e-2
vt 0.70383670 0.36755952
vt 0.70484702 0.24521187
vt 0.70790657 0.12311717
vt 0.70863147 0.98952030
vt 0.70872585 0.16799924
vt 0.72163786 0.21224677
vt 0.72221627 1.7118500e-2
vt 0.72427520 0.30721828
vt 0.72594994 0.14599508
vt 0.72999366 8.1006088e-2
vt 0.73519276 0.18356464
vt 0.73529351 0.11026603
vt 0.74006638 0.13075618
vt 0.74012480 0.26175444
vt 0.74510133 0.49920418
vt 0.74868539 0.15909833
vt 0.75259445 0.22630425
vt 0.75898091 0.13598989
vt 0.76007811 0.66752097
vt 0.76348445 0.19534680
vt 0.76351196 0.11010281
vt 0.76540578 7.8906845e-2
vt 0.77061348 0.65153334
vt 0.77078051 1.5353620e-2
vt 0.77309331 0.16794478
vt 0.77737485 0.38373148
vt 0.77804078 0.75713850
vt 0.77810491 0.27028196
vt 0.78019154 0.32022203
vt 0.78171487 0.14314969
vt 0.78565462 0.23436335
vt 0.78878627 0.56393806
vt 0.79068421 0.11719034
vt 0.79306977 0.20354129
vt 0.79786037 0.17594578
vt 0.80143595 8.5473976e-2
vt 0.80420070 0.15132224
vt 0.80945333 0.85645819
vt 0.80972574 0.26868589
vt 0.81681503 0.12782143
vt 0.81841193 0.61157920
vt 0.81943313 0.23972994
vt 0.82138204 2.3559590e-2
vt 0.82249909 0.15880773
vt 0.82364554 0.20776545
vt 0.82402692 0.17967981
vt 0.82717560 0.67345382
vt 0.82871478 0.48861600
vt 0.83206726 0.29631449
vt 0.83494156 0.10117534
vt 0.83748492 0.74620871
vt 0.83928408 0.14539731
vt 0.83969997 0.55226186
vt 0.85278733 0.17287095
vt 0.85404567 0.81721445
vt 0.85512239 0.93289032
vt 0.85899766 0.20730040
vt 0.86059892 0.25002140
vt 0.86220345 0.12507820
vt 0.86285808 0.68338347
vt 0.86705535 0.87820635
vt 0.87115747 4.3226663e-2
vt 0.87342166 0.73961600
vt 0.87978798 0.60102565
vt 0.88398525 0.79584853
vt 0.88412273 0.15642980
vt 0.89172094 0.54634168
vt 0.89279766 0.66201755
vt 0.90194408 0.19735379
vt 0.90714336 0.92697014
vt 0.90935841 0.73302329
vt 0.91014433 7.7597523e-2
vt 0.91746601 0.24946388
vt 0.91812855 0.99061600
vt 0.91966773 0.80577818
vt 0.92843140 0.86765280
vt 0.92932681 0.40012585
vt 0.93739000 0.62277381
vt 0.94191285 0.11742898
vt 0.95805706 0.91529394
vt 0.96857890 0.16323055
vt 0.96880255 0.72209350
vt 0.97622985 0.82769866
vt 0.99161404 0.21178033
vn -0.23768403 -0.20731097 -0.94896178
vn -0.57735027 -0.57735027 0.57735027
vn -0.23768403 0.20731097 -0.94896178
vn -0.57735027 0.57735027 0.57735027
vn 0.23768403 -0.20731097 -0.94896178
vn 0.57735027 -0.57735027 0.57735027
vn 0.23768403 0.20731097 -0.94896178
vn 0.57735027 0.57735027 0.57735027
vn -0.70662233 -0.70662233 3.7010465e-2
vn -0.26437622 0.0000000e+0 -0.96441963
vn 0.0000000e+0 -0.44099647 -0.89750884
vn -0.70710678 0.0000000e+0 0.70710678
vn 0.0000000e+0 -0.70710678 0.70710678
vn -0.69538142 0.69538142 0.18135427
vn 0.0000000e+0 0.44099647 -0.89750884
vn 0.0000000e+0 0.70710678 0.70710678
vn 0.70662233 -0.70662233 3.7010465e-2
vn 0.26437622 0.0000000e+0 -0.96441963
vn 0.70710678 0.0000000e+0 0.70710678
vn 0.69538142 0.69538142 0.18135427
vn -7.1135901e-18 0.99958537 2.8793863e-2
vn -7.1135901e-18 -0.99958537 2.8793863e-2
vn 0.0000000e+0 0.0000000e+0 1.00000000
vn -1.5073583e-17 1.1305187e-17 -1.00000000
vn 0.99958537 -7.1135901e-18 2.8793863e-2
vn -0.99958537 -7.1135901e-18 2.8793863e-2
vn -0.56054429 -0.56900037 -0.60168819
vn -0.27378124 -8.2394944e-2 -0.95825618
vn -0.47295101 -0.27932203 -0.83564140
vn -0.66130322 -0.35405664 0.66130322
vn -0.35405664 -0.66130322 0.66130322
vn -0.40114285 0.40989178 -0.81919054
vn -0.47295101 0.27932203 -0.83564140
vn -0.35405664 0.66130322 0.66130322
vn 0.56054429 -0.56900037 -0.60168819
vn 0.27378124 -8.2394944e-2 -0.95825618
vn 0.66130322 -0.35405664 0.66130322
vn 0.40114285 0.40989178 -0.81919054
vn -0.66130322 -0.66130322 0.35405664
vn -0.27378124 8.2394944e-2 -0.95825618
vn 0.47295101 -0.27932203 -0.83564140
vn -0.66130322 0.35405664 0.66130322
vn 0.35405664 -0.66130322 0.66130322
vn -0.54087793 0.54087793 0.64412897
vn 0.47295101 0.27932203 -0.83564140
vn 0.35405664 0.66130322 0.66130322
vn 0.66130322 -0.66130322 0.35405664
vn 0.27378124 8.2394944e-2 -0.95825618
vn 0.66130322 0.35405664 0.66130322
vn 0.54087793 0.54087793 0.64412897
vn -7.1808364e-18 0.93531159 0.35382515
vn -3.7707650e-2 0.99696497 6.8110101e-2
vn 0.0000000e+0 0.80247426 -0.59668674
vn 3.7707650e-2 0.99696497 6.8110101e-2
vn 8.1722633e-18 -0.80247426 -0.59668674
vn -0.35066753 -0.93592747 3.2742097e-2
vn 7.1808364e-18 -0.93531159 0.35382515
vn 0.35066753 -0.93592747 3.2742097e-2
vn 0.0000000e+0 -0.35382515 0.93531159
vn -0.35382515 0.0000000e+0 0.93531159
vn 0.0000000e+0 0.35382515 0.93531159
vn 0.35382515 0.0000000e+0 0.93531159
vn -1.4796316e-17 0.19365166 -0.98107035
vn -0.70102442 2.3681413e-17 -0.71313727
vn -1.4796316e-17 -0.19365166 -0.98107035
vn 0.70102442 2.1528557e-17 -0.71313727
vn 0.79526864 0.0000000e+0 -0.60625720
vn 0.93592747 -0.35066753 3.2742097e-2
vn 0.93531159 7.1808364e-18 0.35382515
vn 0.99696497 3.7707650e-2 6.8110101e-2
vn -0.93531159 -7.1808364e-18 0.35382515
vn -0.93592747 -0.35066753 3.2742097e-2
vn -0.79526864 -4.0569678e-18 -0.60625720
vn -0.99696497 3.7707650e-2 6.8110101e-2
vn -0.20099562 0.85811406 0.47248388
vn -0.11397696 0.73491778 -0.66850962
vn 0.11397696 0.73491778 -0.66850962
vn 0.20099562 0.85811406 0.47248388
vn -0.29949804 -0.74576372 -0.59509444
vn -0.35322563 -0.86629285 0.35322563
vn 0.35322563 -0.86629285 0.35322563
vn 0.29949804 -0.74576372 -0.59509444
vn -0.35322563 -0.35322563 0.86629285
vn -0.35322563 0.35322563 0.86629285
vn 0.35322563 0.35322563 0.86629285
vn 0.35322563 -0.35322563 0.86629285
vn -0.68649070 5.1921942e-2 -0.72528245
vn -0.68649070 -5.1921942e-2 -0.72528245
vn 0.68649070 -5.1921942e-2 -0.72528245
vn 0.68649070 5.1921942e-2 -0.72528245
vn 0.75681300 -0.27604239 -0.59248180
vn 0.86629285 -0.35322563 0.35322563
vn 0.85811406 0.20099562 0.47248388
vn 0.74275618 9.0955138e-2 -0.66335543
vn -0.86629285 -0.35322563 0.35322563
vn -0.75681300 -0.27604239 -0.59248180
vn -0.74275618 9.0955138e-2 -0.66335543
vn -0.85811406 0.20099562 0.47248388
vn 0.0000000e+0 -0.39051425 -0.92059688
vn 0.0000000e+0 0.39051425 -0.92059688
vn -0.78497324 2.9842506e-17 -0.61952967
vn 0.78497324 2.3874005e-17 -0.61952967
vn -0.75023664 0.13876257 -0.64644406
vn -0.75023664 -0.13876257 -0.64644406
vn 0.75023664 -0.13876257 -0.64644406
vn 0.75023664 0.13876257 -0.64644406
vn 0.68522893 0.27543333 -0.67423868
vn -0.68522893 -0.27543333 -0.67423868
vn 0.68522893 -0.27543333 -0.67423868
vn -0.68522893 0.27543333 -0.67423868
g Cube1_ojo
usemtl ojo
s 1
f 1/37/1 29/26/29 79/31/79 27/41/27
f 2/77/2 31/82/31 83/80/83 30/73/30
f 2/77/2 39/76/39 80/85/80 31/82/31
f 3/38/3 40/40/40 97/45/97 32/42/32
f 4/61/4 42/63/42 84/70/84 34/66/34
f 4/61/4 44/55/44 98/56/98 42/63/42
f 5/11/5 36/9/36 91/3/91 35/7/35
f 5/11/5 41/19/41 89/17/89 36/9/36
f 6/108/6 47/116/47 92/118/92 37/110/37
f 7/12/7 45/20/45 77/14/77 38/8/38
f 7/12/7 48/10/48 90/18/90 45/20/45
f 8/103/8 50/113/50 78/93/78 46/92/46
f 9/74/9 27/71/27 79/88/79 56/86/56
f 9/74/9 56/86/56 80/85/80 39/76/39
f 10/43/10 28/39/28 96/44/96 73/47/73
f 10/43/10 73/47/73 97/45/97 40/40/40
f 11/112/11 29/131/29 108/128/108 99/117/99
f 11/112/11 99/117/99 109/105/109 41/96/41
f 12/69/12 30/73/30 83/80/83 60/75/60
f 12/69/12 60/75/60 84/70/84 42/63/42
f 13/94/13 31/82/31 80/85/80 57/97/57
f 13/94/13 57/97/57 81/104/81 43/101/43
f 14/68/14 32/48/32 97/49/97 74/83/74
f 14/46/14 74/52/74 98/56/98 44/55/44
f 15/24/15 33/27/33 76/32/76 53/25/53
f 15/24/15 53/25/53 77/14/77 45/20/45
f 16/78/16 34/66/34 84/70/84 61/81/61
f 16/78/16 61/81/61 85/95/85 46/92/46
f 17/123/17 35/136/35 91/143/91 68/130/68
f 17/123/17 68/130/68 92/118/92 47/116/47
f 18/6/18 36/9/36 89/17/89 66/16/66
f 18/6/18 66/16/66 90/18/90 48/10/48
f 19/109/19 37/110/37 92/118/92 69/121/69
f 19/109/19 69/121/69 93/122/93 49/106/49
f 20/5/20 38/21/38 77/34/77 54/33/54
f 20/141/20 54/90/54 78/93/78 50/113/50
f 21/65/21 52/54/52 75/59/75 51/72/51
f 21/65/21 53/58/53 76/51/76 52/54/52
f 21/65/21 54/90/54 77/79/77 53/58/53
f 22/100/22 56/86/56 79/88/79 55/107/55
f 22/100/22 57/97/57 80/85/80 56/86/56
f 22/100/22 58/114/58 81/104/81 57/97/57
f 23/84/23 60/75/60 83/80/83 59/89/59
f 23/84/23 61/81/61 84/70/84 60/75/60
f 23/84/23 62/98/62 85/95/85 61/81/61
f 24/127/24 101/135/101 103/139/103 63/129/63
f 24/127/24 102/115/102 105/111/105 65/124/65
f 25/133/25 68/130/68 91/143/91 67/145/67
f 25/133/25 69/121/69 92/118/92 68/130/68
f 25/133/25 70/137/70 93/122/93 69/121/69
f 26/57/26 72/64/72 95/67/95 71/62/71
f 26/57/26 73/53/73 96/60/96 72/64/72
f 26/57/26 74/52/74 97/50/97 73/53/73
f 27/41/27 96/44/96 28/39/28 1/37/1
f 28/39/28 88/28/88 29/26/29 1/37/1
f 30/73/30 95/67/95 39/76/39 2/77/2
f 32/42/32 76/32/76 33/27/33 3/38/3
f 33/27/33 87/29/87 40/40/40 3/38/3
f 33/144/33 110/140/110 103/139/103 87/147/87
f 34/66/34 75/59/75 44/55/44 4/61/4
f 35/7/35 82/13/82 41/19/41 5/11/5
f 37/110/37 86/99/86 43/101/43 6/108/6
f 38/8/38 94/4/94 48/10/48 7/12/7
f 39/76/39 95/67/95 72/64/72 9/74/9
f 40/40/40 87/29/87 64/30/64 10/43/10
f 41/19/41 82/13/82 55/22/55 11/23/11
f 41/96/41 109/105/109 105/111/105 89/87/89
f 42/63/42 98/56/98 71/62/71 12/69/12
f 43/101/43 81/104/81 47/116/47 6/108/6
f 43/101/43 86/99/86 59/89/59 13/94/13
f 44/55/44 75/59/75 52/54/52 14/46/14
f 45/120/45 107/125/107 100/134/100 15/138/15
f 46/92/46 78/93/78 51/72/51 16/78/16
f 46/92/46 85/95/85 49/106/49 8/103/8
f 47/116/47 81/104/81 58/114/58 17/123/17
f 48/10/48 94/4/94 67/1/67 18/6/18
f 49/106/49 85/95/85 62/98/62 19/109/19
f 49/106/49 93/122/93 50/113/50 8/103/8
f 50/113/50 93/122/93 70/137/70 20/141/20
f 51/72/51 75/59/75 34/66/34 16/78/16
f 51/72/51 78/93/78 54/90/54 21/65/21
f 52/36/52 76/35/76 32/48/32 14/68/14
f 55/22/55 79/31/79 29/26/29 11/23/11
f 55/107/55 82/126/82 58/114/58 22/100/22
f 58/114/58 82/126/82 35/136/35 17/123/17
f 59/89/59 83/80/83 31/82/31 13/94/13
f 59/89/59 86/99/86 62/98/62 23/84/23
f 62/98/62 86/99/86 37/110/37 19/109/19
f 63/129/63 100/134/100 107/125/107 106/119/106
f 63/129/63 106/119/106 102/115/102 24/127/24
f 64/146/64 87/147/87 103/139/103 101/135/101
f 64/30/64 88/28/88 28/39/28 10/43/10
f 65/124/65 99/117/99 108/128/108 104/132/104
f 65/124/65 104/132/104 101/135/101 24/127/24
f 66/91/66 89/87/89 105/111/105 102/115/102
f 67/1/67 91/3/91 36/9/36 18/6/18
f 67/145/67 94/148/94 70/137/70 25/133/25
f 70/2/70 94/15/94 38/21/38 20/5/20
f 71/62/71 95/67/95 30/73/30 12/69/12
f 71/62/71 98/56/98 74/52/74 26/57/26
f 72/64/72 96/60/96 27/71/27 9/74/9
f 88/142/88 104/132/104 108/128/108 29/131/29
f 90/102/90 106/119/106 107/125/107 45/120/45
f 100/134/100 110/140/110 33/144/33 15/138/15
f 101/135/101 104/132/104 88/142/88 64/146/64
f 102/115/102 106/119/106 90/102/90 66/91/66
f 103/139/103 110/140/110 100/134/100 63/129/63
f 105/111/105 109/105/109 99/117/99 65/124/65
