# Exported from Wings 3D 2.2.4
mtllib ./bolaAmarilla.mtl
o Cube1
#26 vertices, 24 faces
v -0.55555556 -0.55555556 -0.55555556
v -0.55555556 -0.55555556 0.55555556
v -0.55555556 0.55555556 -0.55555556
v -0.55555556 0.55555556 0.55555556
v 0.55555556 -0.55555556 -0.55555556
v 0.55555556 -0.55555556 0.55555556
v 0.55555556 0.55555556 -0.55555556
v 0.55555556 0.55555556 0.55555556
v -0.75000000 -0.75000000 0.0000000e+0
v -0.75000000 0.0000000e+0 -0.75000000
v 0.0000000e+0 -0.75000000 -0.75000000
v -0.75000000 0.0000000e+0 0.75000000
v 0.0000000e+0 -0.75000000 0.75000000
v -0.75000000 0.75000000 0.0000000e+0
v 0.0000000e+0 0.75000000 -0.75000000
v 0.0000000e+0 0.75000000 0.75000000
v 0.75000000 -0.75000000 0.0000000e+0
v 0.75000000 0.0000000e+0 -0.75000000
v 0.75000000 0.0000000e+0 0.75000000
v 0.75000000 0.75000000 0.0000000e+0
v 0.0000000e+0 1.00000000 0.0000000e+0
v 0.0000000e+0 -1.00000000 0.0000000e+0
v 0.0000000e+0 0.0000000e+0 1.00000000
v 0.0000000e+0 0.0000000e+0 -1.00000000
v 1.00000000 0.0000000e+0 0.0000000e+0
v -1.00000000 0.0000000e+0 0.0000000e+0
vn -0.57735027 -0.57735027 -0.57735027
vn -0.57735027 -0.57735027 0.57735027
vn -0.57735027 0.57735027 -0.57735027
vn -0.57735027 0.57735027 0.57735027
vn 0.57735027 -0.57735027 -0.57735027
vn 0.57735027 -0.57735027 0.57735027
vn 0.57735027 0.57735027 -0.57735027
vn 0.57735027 0.57735027 0.57735027
vn -0.70710678 -0.70710678 0.0000000e+0
vn -0.70710678 0.0000000e+0 -0.70710678
vn 0.0000000e+0 -0.70710678 -0.70710678
vn -0.70710678 0.0000000e+0 0.70710678
vn 0.0000000e+0 -0.70710678 0.70710678
vn -0.70710678 0.70710678 0.0000000e+0
vn 0.0000000e+0 0.70710678 -0.70710678
vn 0.0000000e+0 0.70710678 0.70710678
vn 0.70710678 -0.70710678 0.0000000e+0
vn 0.70710678 0.0000000e+0 -0.70710678
vn 0.70710678 0.0000000e+0 0.70710678
vn 0.70710678 0.70710678 0.0000000e+0
vn 0.0000000e+0 1.00000000 0.0000000e+0
vn 0.0000000e+0 -1.00000000 0.0000000e+0
vn 0.0000000e+0 0.0000000e+0 1.00000000
vn 0.0000000e+0 0.0000000e+0 -1.00000000
vn 1.00000000 0.0000000e+0 0.0000000e+0
vn -1.00000000 0.0000000e+0 0.0000000e+0
g Cube1_bolaAmarilla
usemtl bolaAmarilla
s 1
f 1//1 11//11 22//22 9//9
f 2//2 9//9 22//22 13//13
f 2//2 13//13 23//23 12//12
f 3//3 10//10 26//26 14//14
f 4//4 12//12 23//23 16//16
f 4//4 14//14 26//26 12//12
f 5//5 11//11 24//24 18//18
f 5//5 18//18 25//25 17//17
f 6//6 17//17 25//25 19//19
f 7//7 15//15 21//21 20//20
f 7//7 18//18 24//24 15//15
f 8//8 20//20 21//21 16//16
f 9//9 26//26 10//10 1//1
f 10//10 24//24 11//11 1//1
f 12//12 26//26 9//9 2//2
f 13//13 22//22 17//17 6//6
f 14//14 21//21 15//15 3//3
f 15//15 24//24 10//10 3//3
f 16//16 21//21 14//14 4//4
f 16//16 23//23 19//19 8//8
f 17//17 22//22 11//11 5//5
f 19//19 23//23 13//13 6//6
f 19//19 25//25 20//20 8//8
f 20//20 25//25 18//18 7//7
