# Exported from Wings 3D 2.2.4
mtllib bolaPinchos.mtl
o Cube1
#98 vertices, 96 faces
v -0.50925926 -0.60245704 -0.50925926
v -0.50925926 -0.60245704 0.50925926
v -0.50925926 0.50925926 -0.50925926
v -0.50925926 0.50925926 0.50925926
v 0.50925926 -0.60245704 -0.50925926
v 0.50925926 -0.60245704 0.50925926
v 0.50925926 0.50925926 -0.50925926
v 0.50925926 0.50925926 0.50925926
v -0.64322917 -0.60245704 -4.4127801e-18
v -0.64322917 -3.4694470e-18 -0.64322917
v -2.8889342e-18 -0.60245704 -0.64322917
v -0.64322917 -3.4694470e-18 0.64322917
v -2.8889342e-18 -0.60245704 0.64322917
v -0.64322917 0.64322917 -3.4694470e-18
v -3.4694470e-18 0.64322917 -0.64322917
v -3.4694470e-18 0.64322917 0.64322917
v 0.64322917 -0.60245704 -4.4127801e-18
v 0.64322917 -3.4694470e-18 -0.64322917
v 0.64322917 -3.4694470e-18 0.64322917
v 0.64322917 0.64322917 -3.4694470e-18
v 0.0000000e+0 1.39150000 5.4956040e-18
v 1.4746380e-18 -0.60245704 -5.8657338e-18
v 0.0000000e+0 -0.12825694 1.51975694
v 0.0000000e+0 -0.12825694 -1.51975694
v 1.51975694 -0.12825694 -6.5086825e-18
v -1.51975694 -0.12825694 5.4956040e-18
v -0.59895833 -0.60245704 -0.30208333
v -0.59895833 -0.30208333 -0.59895833
v -0.30208333 -0.60245704 -0.59895833
v -0.59895833 -0.30208333 0.59895833
v -0.30208333 -0.60245704 0.59895833
v -0.59895833 0.59895833 -0.30208333
v -0.30208333 0.59895833 -0.59895833
v -0.30208333 0.59895833 0.59895833
v 0.59895833 -0.60245704 -0.30208333
v 0.59895833 -0.30208333 -0.59895833
v 0.59895833 -0.30208333 0.59895833
v 0.59895833 0.59895833 -0.30208333
v -0.59895833 -0.60245704 0.30208333
v -0.59895833 0.30208333 -0.59895833
v 0.30208333 -0.60245704 -0.59895833
v -0.59895833 0.30208333 0.59895833
v 0.30208333 -0.60245704 0.59895833
v -0.59895833 0.59895833 0.30208333
v 0.30208333 0.59895833 -0.59895833
v 0.30208333 0.59895833 0.59895833
v 0.59895833 -0.60245704 0.30208333
v 0.59895833 0.30208333 -0.59895833
v 0.59895833 0.30208333 0.59895833
v 0.59895833 0.59895833 0.30208333
v 0.0000000e+0 0.81944444 0.35069444
v -0.35069444 0.81944444 0.0000000e+0
v 0.0000000e+0 0.81944444 -0.35069444
v 0.35069444 0.81944444 0.0000000e+0
v 6.3420178e-19 -0.60245704 -0.35069444
v -0.35069444 -0.60245704 -1.0305779e-18
v 6.3420178e-19 -0.60245704 0.35069444
v 0.35069444 -0.60245704 -1.0305779e-18
v 0.0000000e+0 -0.35069444 0.81944444
v -0.35069444 0.0000000e+0 0.81944444
v 0.0000000e+0 0.35069444 0.81944444
v 0.35069444 0.0000000e+0 0.81944444
v 0.0000000e+0 0.35069444 -0.81944444
v -0.35069444 0.0000000e+0 -0.81944444
v 0.0000000e+0 -0.35069444 -0.81944444
v 0.35069444 0.0000000e+0 -0.81944444
v 0.81944444 0.0000000e+0 -0.35069444
v 0.81944444 -0.35069444 0.0000000e+0
v 0.81944444 0.0000000e+0 0.35069444
v 0.81944444 0.35069444 0.0000000e+0
v -0.81944444 0.0000000e+0 0.35069444
v -0.81944444 -0.35069444 0.0000000e+0
v -0.81944444 0.0000000e+0 -0.35069444
v -0.81944444 0.35069444 0.0000000e+0
v -0.32638889 0.76388889 0.32638889
v -0.32638889 0.76388889 -0.32638889
v 0.32638889 0.76388889 -0.32638889
v 0.32638889 0.76388889 0.32638889
v -0.32638889 -0.60245704 -0.32638889
v -0.32638889 -0.60245704 0.32638889
v 0.32638889 -0.60245704 0.32638889
v 0.32638889 -0.60245704 -0.32638889
v -0.32638889 -0.32638889 0.76388889
v -0.32638889 0.32638889 0.76388889
v 0.32638889 0.32638889 0.76388889
v 0.32638889 -0.32638889 0.76388889
v -0.32638889 0.32638889 -0.76388889
v -0.32638889 -0.32638889 -0.76388889
v 0.32638889 -0.32638889 -0.76388889
v 0.32638889 0.32638889 -0.76388889
v 0.76388889 -0.32638889 -0.32638889
v 0.76388889 -0.32638889 0.32638889
v 0.76388889 0.32638889 0.32638889
v 0.76388889 0.32638889 -0.32638889
v -0.76388889 -0.32638889 0.32638889
v -0.76388889 -0.32638889 -0.32638889
v -0.76388889 0.32638889 -0.32638889
v -0.76388889 0.32638889 0.32638889
vt 8.2068529e-3 0.74308976
vt 1.5101215e-2 0.20754827
vt 2.5482149e-2 0.86096836
vt 2.5482164e-2 0.62521119
vt 2.9865161e-2 0.24026049
vt 3.6220874e-2 0.17853140
vt 5.4517601e-2 0.29016964
vt 5.7446631e-2 0.14750250
vt 6.0484400e-2 0.94181221
vt 6.0484423e-2 0.54436733
vt 7.0996156e-2 0.20678614
vt 7.1542550e-2 0.11205058
vt 8.7834008e-2 6.4901874e-2
vt 0.10001319 0.35843363
vt 0.10075056 0.17094925
vt 0.11067446 0.23790202
vt 0.11491752 0.12608261
vt 0.12173424 7.1451835e-2
vt 0.12235940 0.74308977
vt 0.13184383 0.87045279
vt 0.13184385 0.61572676
vt 0.14132825 0.97681447
vt 0.14132829 0.50936508
vt 0.14523561 0.18332623
vt 0.15299968 0.28517275
vt 0.16252925 0.14362386
vt 0.17095568 0.41349466
vt 0.17667729 7.2597794e-2
vt 0.18605500 0.21923016
vt 0.21615401 0.33582596
vt 0.22622272 0.15600000
vt 0.25387637 0.44797239
vt 0.25880732 0.26253062
vt 0.25920684 0.99408978
vt 0.25920685 0.87993723
vt 0.25920685 0.74308978
vt 0.25920686 0.60624233
vt 0.25920687 0.49208978
vt 0.26554714 6.4901874e-2
vt 0.29139470 0.36571000
vt 0.30075562 0.19044676
vt 0.33239705 0.30439209
vt 0.33570441 0.45380279
vt 0.35340410 0.37915550
vt 0.36732947 7.6046420e-2
vt 0.36752728 0.23823042
vt 0.37708542 0.97681448
vt 0.37708546 0.50936509
vt 0.38377976 0.32214402
vt 0.38656986 0.87045280
vt 0.38656988 0.61572677
vt 0.39127667 0.45057940
vt 0.39605431 0.74308979
vt 0.40006015 0.39828083
vt 0.40975477 0.28749366
vt 0.41651824 0.35470630
vt 0.42701193 0.44725456
vt 0.42730362 0.15903404
vt 0.44180634 0.41455679
vt 0.44852795 0.32022304
vt 0.45792928 0.94181223
vt 0.45792931 0.54436735
vt 0.45829766 0.38077275
vt 0.46451785 0.24010301
vt 0.47040443 0.41837400
vt 0.48215697 0.35100251
vt 0.49265832 0.28730647
vt 0.49293154 0.86096838
vt 0.49293156 0.62521120
vt 0.49457311 0.39281015
vt 0.50125410 0.45857548
vt 0.51020685 0.74308980
vt 0.51510122 0.31354469
vt 0.52185239 0.49470529
vt 0.52220276 0.34431420
vt 0.54094424 0.42786614
vt 0.54496439 0.52820645
vt 0.55551121 0.80218046
vt 0.55858778 0.71904702
vt 0.56064599 0.55877821
vt 0.56158402 0.47050052
vt 0.56175057 0.65488820
vt 0.56382647 0.27174259
vt 0.56916267 0.89533155
vt 0.57106085 0.38789586
vt 0.58842127 0.50759240
vt 0.59564408 0.99282275
vt 0.59625094 0.56178585
vt 0.60116132 0.43142866
vt 0.61856473 0.62491306
vt 0.62149983 0.35997642
vt 0.62526475 0.18833891
vt 0.63639844 0.49949477
vt 0.64633274 0.70877928
vt 0.64918644 0.78906945
vt 0.64929431 0.56667695
vt 0.66401018 0.41398779
vt 0.67415964 0.86959239
vt 0.68711044 0.47486569
vt 0.69145506 0.30899315
vt 0.69261300 0.58699887
vt 0.69519447 0.97563203
vt 0.72030969 0.67744134
vt 0.72073237 0.56118206
vt 0.72861772 0.18133894
vt 0.72942987 0.37821509
vt 0.73900162 0.76782275
vt 0.75769355 0.85820416
vt 0.76737257 0.44737850
vt 0.77204198 0.27738975
vt 0.78280877 0.56001347
vt 0.78539024 0.94864664
vt 0.79475155 0.34226373
vt 0.80384360 0.66605311
vt 0.81218825 0.18522961
vt 0.81619741 0.53637830
vt 0.82269085 0.24985290
vt 0.82881679 0.74657606
vt 0.83167050 0.82686623
vt 0.83368178 0.39445739
vt 0.84323129 0.29863029
vt 0.85943851 0.91073244
vt 0.86793462 0.18798590
vt 0.87258323 0.24593065
vt 0.88170235 0.36492228
vt 0.88235915 0.54282275
vt 0.88841248 0.46919359
vt 0.89744948 0.28624641
vt 0.90248102 0.18133894
vt 0.90884057 0.64031395
vt 0.91431126 0.32881079
vt 0.91625267 0.88075730
vt 0.91941546 0.81659848
vt 0.91980934 0.22895817
vt 0.92249203 0.73346505
vt 0.93143256 0.41189732
vt 0.93921211 0.26574383
vt 0.95504727 0.30323703
vt 0.95580937 0.36453390
vt 0.97240443 0.33288959
vn -0.48091511 -0.73310389 -0.48091511
vn -0.48091511 -0.73310389 0.48091511
vn -0.57735027 0.57735027 -0.57735027
vn -0.57735027 0.57735027 0.57735027
vn 0.48091511 -0.73310389 -0.48091511
vn 0.48091511 -0.73310389 0.48091511
vn 0.57735027 0.57735027 -0.57735027
vn 0.57735027 0.57735027 0.57735027
vn -0.47270507 -0.88122070 0.0000000e+0
vn -0.70710678 0.0000000e+0 -0.70710678
vn 0.0000000e+0 -0.88122070 -0.47270507
vn -0.70710678 0.0000000e+0 0.70710678
vn 0.0000000e+0 -0.88122070 0.47270507
vn -0.70710678 0.70710678 0.0000000e+0
vn 0.0000000e+0 0.70710678 -0.70710678
vn 0.0000000e+0 0.70710678 0.70710678
vn 0.47270507 -0.88122070 0.0000000e+0
vn 0.70710678 0.0000000e+0 -0.70710678
vn 0.70710678 0.0000000e+0 0.70710678
vn 0.70710678 0.70710678 0.0000000e+0
vn 0.0000000e+0 1.00000000 0.0000000e+0
vn 0.0000000e+0 -1.00000000 0.0000000e+0
vn 5.3766907e-17 -6.1852674e-2 0.99808529
vn 5.3766907e-17 -6.1852674e-2 -0.99808529
vn 0.99808529 -6.1852674e-2 0.0000000e+0
vn -0.99808529 -6.1852674e-2 0.0000000e+0
vn -0.46948318 -0.86598986 -0.17218338
vn -0.66903529 -0.32370290 -0.66903529
vn -0.17218338 -0.86598986 -0.46948318
vn -0.66903529 -0.32370290 0.66903529
vn -0.17218338 -0.86598986 0.46948318
vn -0.66130322 0.66130322 -0.35405664
vn -0.35405664 0.66130322 -0.66130322
vn -0.35405664 0.66130322 0.66130322
vn 0.46948318 -0.86598986 -0.17218338
vn 0.66903529 -0.32370290 -0.66903529
vn 0.66903529 -0.32370290 0.66903529
vn 0.66130322 0.66130322 -0.35405664
vn -0.46948318 -0.86598986 0.17218338
vn -0.66130322 0.35405664 -0.66130322
vn 0.17218338 -0.86598986 -0.46948318
vn -0.66130322 0.35405664 0.66130322
vn 0.17218338 -0.86598986 0.46948318
vn -0.66130322 0.66130322 0.35405664
vn 0.35405664 0.66130322 -0.66130322
vn 0.35405664 0.66130322 0.66130322
vn 0.46948318 -0.86598986 0.17218338
vn 0.66130322 0.35405664 -0.66130322
vn 0.66130322 0.35405664 0.66130322
vn 0.66130322 0.66130322 0.35405664
vn 0.0000000e+0 0.79706425 0.60389451
vn -0.60389451 0.79706425 0.0000000e+0
vn 0.0000000e+0 0.79706425 -0.60389451
vn 0.60389451 0.79706425 0.0000000e+0
vn 0.0000000e+0 -1.00000000 0.0000000e+0
vn 0.0000000e+0 -1.00000000 0.0000000e+0
vn 0.0000000e+0 -1.00000000 0.0000000e+0
vn 0.0000000e+0 -1.00000000 0.0000000e+0
vn 3.2104562e-17 -0.68026109 0.73296989
vn -0.63650970 -1.8205808e-2 0.77105379
vn 0.0000000e+0 0.60503550 0.79619850
vn 0.63650970 -1.8205808e-2 0.77105379
vn 0.0000000e+0 0.60503550 -0.79619850
vn -0.63650970 -1.8205808e-2 -0.77105379
vn 0.0000000e+0 -0.68026109 -0.73296989
vn 0.63650970 -1.8205808e-2 -0.77105379
vn 0.77105379 -1.8205808e-2 -0.63650970
vn 0.73296989 -0.68026109 0.0000000e+0
vn 0.77105379 -1.8205808e-2 0.63650970
vn 0.79619850 0.60503550 0.0000000e+0
vn -0.77105379 -1.8205808e-2 0.63650970
vn -0.73296989 -0.68026109 0.0000000e+0
vn -0.77105379 -1.8205808e-2 -0.63650970
vn -0.79619850 0.60503550 0.0000000e+0
vn -0.45459912 0.76594993 0.45459912
vn -0.45459912 0.76594993 -0.45459912
vn 0.45459912 0.76594993 -0.45459912
vn 0.45459912 0.76594993 0.45459912
vn 0.0000000e+0 -1.00000000 0.0000000e+0
vn 0.0000000e+0 -1.00000000 0.0000000e+0
vn 0.0000000e+0 -1.00000000 0.0000000e+0
vn 0.0000000e+0 -1.00000000 0.0000000e+0
vn -0.45501091 -0.47058716 0.75598466
vn -0.45502235 0.45502235 0.76544714
vn 0.45502235 0.45502235 0.76544714
vn 0.45501091 -0.47058716 0.75598466
vn -0.45502235 0.45502235 -0.76544714
vn -0.45501091 -0.47058716 -0.75598466
vn 0.45501091 -0.47058716 -0.75598466
vn 0.45502235 0.45502235 -0.76544714
vn 0.75598466 -0.47058716 -0.45501091
vn 0.75598466 -0.47058716 0.45501091
vn 0.76544714 0.45502235 0.45502235
vn 0.76544714 0.45502235 -0.45502235
vn -0.75598466 -0.47058716 0.45501091
vn -0.75598466 -0.47058716 -0.45501091
vn -0.76544714 0.45502235 -0.45502235
vn -0.76544714 0.45502235 0.45502235
g Cube1_bolaPinchos
usemtl bolaPinchos
s 1
f 1/61/1 29/47/29 79/50/79 27/68/27
f 2/13/2 31/18/31 83/17/83 30/12/30
f 2/62/2 39/69/39 80/51/80 31/48/31
f 3/116/3 40/109/40 97/120/97 32/127/32
f 4/2/4 42/6/42 84/11/84 34/5/34
f 4/140/4 44/139/44 98/131/98 42/138/42
f 5/73/5 36/66/36 91/60/91 35/67/35
f 5/65/5 41/70/41 89/76/89 36/71/36
f 6/45/6 47/58/47 92/46/92 37/41/37
f 7/132/7 45/122/45 77/119/77 38/133/38
f 7/80/7 48/77/48 90/86/90 45/88/45
f 8/126/8 50/130/50 78/114/78 46/111/46
f 9/72/9 27/68/27 79/50/79 56/53/56
f 9/72/9 56/53/56 80/51/80 39/69/39
f 10/106/10 28/100/28 96/110/96 73/113/73
f 10/106/10 73/113/73 97/120/97 40/109/40
f 11/75/11 29/83/29 88/91/88 65/85/65
f 11/75/11 65/85/65 89/76/89 41/70/41
f 12/8/12 30/12/30 83/17/83 60/15/60
f 12/8/12 60/15/60 84/11/84 42/6/42
f 13/38/13 31/48/31 80/51/80 57/37/57
f 13/38/13 57/37/57 81/21/81 43/23/43
f 14/136/14 32/127/32 97/120/97 74/125/74
f 14/136/14 74/125/74 98/131/98 44/139/44
f 15/112/15 33/102/33 76/98/76 53/108/53
f 15/112/15 53/108/53 77/119/77 45/122/45
f 16/7/16 34/5/34 84/11/84 61/16/61
f 16/7/16 61/16/61 85/25/85 46/14/46
f 17/64/17 35/67/35 91/60/91 68/55/68
f 17/64/17 68/55/68 92/46/92 47/58/47
f 18/74/18 36/71/36 89/76/89 66/81/66
f 18/74/18 66/81/66 90/86/90 48/77/48
f 19/33/19 37/41/37 92/46/92 69/42/69
f 19/33/19 69/42/69 93/40/93 49/30/49
f 20/135/20 38/133/38 77/119/77 54/118/54
f 20/135/20 54/118/54 78/114/78 50/130/50
f 21/107/21 52/95/52 75/94/75 51/103/51
f 21/107/21 53/108/53 76/98/76 52/95/52
f 21/107/21 54/118/54 77/119/77 53/108/53
f 22/36/22 56/53/56 79/50/79 55/35/55
f 22/36/22 57/37/57 80/51/80 56/53/56
f 22/36/22 58/19/58 81/21/81 57/37/57
f 23/24/23 60/15/60 83/17/83 59/26/59
f 23/24/23 61/16/61 84/11/84 60/15/60
f 23/24/23 62/29/62 85/25/85 61/16/61
f 24/89/24 64/97/64 87/99/87 63/93/63
f 24/89/24 65/85/65 88/91/88 64/97/64
f 24/89/24 66/81/66 89/76/89 65/85/65
f 25/49/25 68/55/68 91/60/91 67/56/67
f 25/49/25 69/42/69 92/46/92 68/55/68
f 25/49/25 70/44/70 93/40/93 69/42/69
f 26/121/26 72/117/72 95/124/95 71/128/71
f 26/121/26 73/113/73 96/110/96 72/117/72
f 26/121/26 74/125/74 97/120/97 73/113/73
f 27/105/27 96/110/96 28/100/28 1/92/1
f 28/100/28 88/91/88 29/83/29 1/92/1
f 30/134/30 95/124/95 39/123/39 2/129/2
f 32/84/32 76/98/76 33/102/33 3/87/3
f 33/104/33 87/99/87 40/109/40 3/116/3
f 34/90/34 75/94/75 44/79/44 4/82/4
f 35/3/35 82/20/82 41/22/41 5/9/5
f 37/41/37 86/31/86 43/39/43 6/45/6
f 38/52/38 94/54/94 48/59/48 7/57/7
f 39/123/39 95/124/95 72/117/72 9/115/9
f 40/109/40 87/99/87 64/97/64 10/106/10
f 41/22/41 82/20/82 55/35/55 11/34/11
f 42/138/42 98/131/98 71/128/71 12/137/12
f 43/23/43 81/21/81 47/4/47 6/10/6
f 43/39/43 86/31/86 59/26/59 13/28/13
f 44/79/44 75/94/75 52/95/52 14/78/14
f 45/88/45 90/86/90 63/93/63 15/96/15
f 46/111/46 78/114/78 51/103/51 16/101/16
f 46/14/46 85/25/85 49/30/49 8/27/8
f 47/4/47 81/21/81 58/19/58 17/1/17
f 48/59/48 94/54/94 67/56/67 18/63/18
f 49/30/49 85/25/85 62/29/62 19/33/19
f 49/30/49 93/40/93 50/32/50 8/27/8
f 50/32/50 93/40/93 70/44/70 20/43/20
f 51/103/51 75/94/75 34/90/34 16/101/16
f 51/103/51 78/114/78 54/118/54 21/107/21
f 52/95/52 76/98/76 32/84/32 14/78/14
f 55/35/55 79/50/79 29/47/29 11/34/11
f 55/35/55 82/20/82 58/19/58 22/36/22
f 58/19/58 82/20/82 35/3/35 17/1/17
f 59/26/59 83/17/83 31/18/31 13/28/13
f 59/26/59 86/31/86 62/29/62 23/24/23
f 62/29/62 86/31/86 37/41/37 19/33/19
f 63/93/63 87/99/87 33/104/33 15/96/15
f 63/93/63 90/86/90 66/81/66 24/89/24
f 64/97/64 88/91/88 28/100/28 10/106/10
f 67/56/67 91/60/91 36/66/36 18/63/18
f 67/56/67 94/54/94 70/44/70 25/49/25
f 70/44/70 94/54/94 38/52/38 20/43/20
f 71/128/71 95/124/95 30/134/30 12/137/12
f 71/128/71 98/131/98 74/125/74 26/121/26
f 72/117/72 96/110/96 27/105/27 9/115/9
