# Exported from Wings 3D 2.2.4
mtllib ./cabezaConejo.mtl
o Cube1
#57 vertices, 53 faces
v -0.55555556 -0.55555556 -0.55555556
v -0.45138889 -0.55555556 0.45138889
v -0.55555556 0.55555556 -0.55555556
v -0.45138889 0.55555556 0.45138889
v 0.55555556 -0.55555556 -0.55555556
v 0.55555556 -0.55555556 0.55555556
v 0.55555556 0.55555556 -0.55555556
v 0.55555556 0.55555556 0.55555556
v -0.82638889 -0.75000000 7.6388889e-2
v -0.75000000 0.0000000e+0 -0.75000000
v 0.0000000e+0 -0.75000000 -0.75000000
v -7.6388889e-2 -0.75000000 0.82638889
v -0.82638889 0.75000000 7.6388889e-2
v 0.0000000e+0 0.75000000 -0.75000000
v -7.6388889e-2 0.75000000 0.82638889
v 0.75000000 -0.75000000 0.0000000e+0
v 0.75000000 0.0000000e+0 -0.75000000
v 0.75000000 0.0000000e+0 0.75000000
v 0.75000000 0.75000000 0.0000000e+0
v 0.0000000e+0 1.00000000 0.0000000e+0
v 0.0000000e+0 -1.00000000 0.0000000e+0
v 4.8611111e-2 0.0000000e+0 0.95138889
v 0.0000000e+0 0.0000000e+0 -1.00000000
v 1.00000000 0.0000000e+0 0.0000000e+0
v -0.95138889 0.0000000e+0 -4.8611111e-2
v -0.37604001 0.70587578 -0.35927054
v -0.45550881 0.78226201 -0.21383615
v -0.24575916 0.81330019 -0.22099036
v -0.25699502 0.78027443 -0.41731890
v 0.21383615 0.78226201 0.45550881
v 0.35927054 0.70587578 0.37604001
v 0.41731890 0.78027443 0.25699502
v 0.22099036 0.81330019 0.24575916
v 0.52764014 1.56677198 0.76931280
v 0.88090964 1.32892685 0.88565612
v 0.73112289 1.56478440 0.57079901
v 0.32695924 1.75926905 0.36375103
v -0.84005782 1.36652540 -0.83251158
v -0.76931280 1.56677198 -0.52764014
v -0.40934933 1.72167051 -0.37535730
v -0.57079901 1.56478440 -0.73112289
v 0.73374809 2.08204184 0.97542075
v 1.08701759 1.84419672 1.09176406
v 0.93723084 2.08005426 0.77690696
v 0.53306718 2.27453891 0.56985898
v -1.04616577 1.88179526 -1.03861952
v -0.97542075 2.08204184 -0.73374809
v -0.61545728 2.23694037 -0.58146525
v -0.77690696 2.08005426 -0.93723084
v 0.98515835 2.49025170 1.02853716
v 1.00635452 2.47598099 1.03551776
v 0.99736731 2.49013244 1.01662633
v 0.97311749 2.50180152 1.00420346
v -1.03278186 2.47823690 -1.00345063
v -1.02853716 2.49025170 -0.98515835
v -1.00693935 2.49954561 -0.97602138
v -1.01662633 2.49013244 -0.99736731
vt 5.1365076e-3 0.79380000
vt 7.1740019e-3 0.37996709
vt 8.8058556e-3 0.49759979
vt 5.2984066e-2 0.59080000
vt 5.2984066e-2 0.99680000
vt 6.3197360e-2 0.19762271
vt 9.6584363e-2 0.59608768
vt 0.10264438 0.59604713
vt 0.10384222 0.20894550
vt 0.10420293 0.38765105
vt 0.10431595 0.50232270
vt 0.10808570 0.59606894
vt 0.13790260 0.19638342
vt 0.18999339 0.49738595
vt 0.19126358 0.37958382
vt 0.19549380 0.38037040
vt 0.19652674 0.64342963
vt 0.19652674 0.94417037
vt 0.19847523 0.49771378
vt 0.23418395 0.19809624
vt 0.26743813 0.59446641
vt 0.26931964 0.38670715
vt 0.26963144 0.20679779
vt 0.26985998 0.50156352
vt 0.27194954 0.59441715
vt 0.27706090 0.59443767
vt 0.31119561 0.19823208
vt 0.34006942 0.59080000
vt 0.34006942 0.99680000
vt 0.35070870 0.49698662
vt 0.35279178 0.37986240
vt 0.36617110 0.20306079
vt 0.36968611 0.32553438
vt 0.38791698 0.79380000
vt 0.39153742 0.71984538
vt 0.42281691 1.2062958e-2
vt 0.45313393 2.1118169e-2
vt 0.45368470 0.20887781
vt 0.45488795 0.42717525
vt 0.45512184 0.33003306
vt 0.46021169 0.42722336
vt 0.46646037 0.42704052
vt 0.46929610 0.47291237
vt 0.49356991 1.2046781e-2
vt 0.51954606 0.99272600
vt 0.53903298 0.69428952
vt 0.54908407 0.60315837
vt 0.55539047 0.32335172
vt 0.55613673 0.20100761
vt 0.57441872 0.78017124
vt 0.59247935 0.86375097
vt 0.60791563 0.81912246
vt 0.61253477 0.32996017
vt 0.62011132 0.67571503
vt 0.62063727 0.59982774
vt 0.62574083 0.80011745
vt 0.63402667 0.82057507
vt 0.63894060 0.75066259
vt 0.65608602 0.50122526
vt 0.67325004 0.60890896
vt 0.68042386 0.65863481
vt 0.68768475 0.70892214
vt 0.70319346 0.80838527
vt 0.71925533 0.57005199
vt 0.74063680 0.64049832
vt 0.74347293 0.71783089
vt 0.75030577 0.99384836
vt 0.76356232 0.77791945
vt 0.76897364 0.75347249
vt 0.78798529 0.53031689
vt 0.78982770 0.75515578
vt 0.80878194 0.78475538
vt 0.80906557 0.70816013
vt 0.82080626 0.61741348
vt 0.83092217 0.19513985
vt 0.83181147 0.33445668
vt 0.83183512 0.31767061
vt 0.87774230 6.1088929e-3
vt 0.90057325 0.84496511
vt 0.90697705 0.42102030
vt 0.91230531 0.42117819
vt 0.91672157 0.42110792
vt 0.91705658 0.32410153
vt 0.91822936 0.20319066
vt 0.91846219 1.5271838e-2
vt 0.94891256 6.3286650e-3
vt 0.96623615 0.59028318
vt 0.98773536 0.31924534
vt 0.99074979 0.19641136
vt 1.12089003 0.16864898
vt 1.12129679 0.15968287
vt 1.12203601 0.16500070
vt 1.12360326 0.15517134
vt 1.12411554 0.16705891
vt 1.12573152 0.15718408
vt 1.12593633 0.16312697
vt 1.12777540 0.15335831
vn -0.58487331 -0.56354345 -0.58338837
vn -0.62677409 -0.46293465 0.62677409
vn -0.55453915 0.62490358 -0.54952875
vn -0.62677409 0.46293465 0.62677409
vn 0.57735027 -0.57735027 -0.57735027
vn 0.58338837 -0.56354345 0.58487331
vn 0.57735027 0.57735027 -0.57735027
vn 0.54952875 0.62490358 0.55453915
vn -0.75486470 -0.64271026 0.13077773
vn -0.70825912 0.0000000e+0 -0.70595256
vn -1.6106240e-17 -0.70710678 -0.70710678
vn -0.13077773 -0.64271026 0.75486470
vn -0.67618136 0.73669601 -7.5998340e-3
vn -0.10467560 0.76846160 -0.63127632
vn 7.5998340e-3 0.73669601 0.67618136
vn 0.70710678 -0.70710678 1.6106240e-17
vn 0.70710678 0.0000000e+0 -0.70710678
vn 0.70595256 0.0000000e+0 0.70825912
vn 0.63127632 0.76846160 0.10467560
vn -1.1862882e-2 0.99985926 1.1862882e-2
vn -1.6276562e-2 -0.99973504 1.6276562e-2
vn 2.8857886e-3 -6.8000963e-18 0.99999584
vn 0.0000000e+0 0.0000000e+0 -1.00000000
vn 1.00000000 0.0000000e+0 0.0000000e+0
vn -0.99999584 -6.8000963e-18 -2.8857886e-3
vn -0.62003232 0.42756707 -0.65783458
vn -0.75690539 0.63557408 0.15211777
vn 7.3761925e-3 0.99995862 -5.3235452e-3
vn 0.18138864 0.63652780 -0.74962025
vn -0.17774874 0.62223084 0.76238715
vn 0.64168569 0.46749733 0.60801787
vn 0.75009362 0.62897092 -0.20434078
vn 2.8286320e-2 0.99940889 1.9538441e-2
vn -0.68811303 -6.9951538e-2 0.72222382
vn 0.61460275 -0.58280471 0.53160335
vn 0.69924806 -4.0742716e-2 -0.71371715
vn -0.63801712 0.39720293 -0.65966961
vn -0.54120205 -0.56068832 -0.62668090
vn -0.72939056 -6.9604830e-2 0.68054727
vn 0.65551863 0.42114187 0.62684516
vn 0.70470851 -4.2912721e-2 -0.70819800
vn -0.61933557 0.10559887 0.77799250
vn 0.73745460 -0.13165694 0.66244030
vn 0.74652625 0.11688361 -0.65500899
vn -0.41832850 0.79755603 -0.43463277
vn -0.65250485 -0.19528556 -0.73218916
vn -0.78252877 0.10166653 0.61425780
vn 0.47255946 0.75781708 0.44988980
vn 0.64868028 0.11190507 -0.75278892
vn -0.28541317 0.55120606 0.78403520
vn 0.58551428 0.59461115 0.55100872
vn 0.76770091 0.55115765 -0.32689534
vn 0.10017475 0.99083969 9.0563348e-2
vn -0.57720980 0.53393849 -0.61784993
vn -0.78558030 0.55431196 0.27495790
vn -4.6002333e-2 0.99719477 -5.9045551e-2
vn 0.31682038 0.55175284 -0.77148795
g Cube1_cabezaConejo
usemtl cabezaConejo
s 1
f 1/70/1 11/64/11 21/59/21 9/76/9
f 2/53/2 9/76/9 21/59/21 12/43/12
f 3/73/3 10/74/10 25/87/25 13/79/13
f 3/73/3 26/71/26 29/69/29 14/66/14
f 5/60/5 11/64/11 23/65/23 17/61/17
f 5/60/5 17/61/17 24/54/24 16/55/16
f 6/47/6 16/55/16 24/54/24 18/46/18
f 7/62/7 14/66/14 20/63/20 19/58/19
f 7/62/7 17/61/17 23/65/23 14/66/14
f 8/50/8 31/52/31 30/51/30 15/45/15
f 9/76/9 25/87/25 10/74/10 1/70/1
f 10/74/10 23/65/23 11/64/11 1/70/1
f 12/43/12 21/59/21 16/55/16 6/47/6
f 12/28/12 22/34/22 15/29/15 4/18/4 13/5/13 25/1/25 9/4/9 2/17/2
f 13/79/13 27/72/27 26/71/26 3/73/3
f 14/66/14 23/65/23 10/74/10 3/73/3
f 14/66/14 29/69/29 28/68/28 20/63/20
f 15/45/15 20/63/20 13/79/13 4/67/4
f 15/45/15 22/35/22 18/46/18 8/50/8
f 15/45/15 30/51/30 33/57/33 20/63/20
f 16/55/16 21/59/21 11/64/11 5/60/5
f 18/46/18 22/35/22 12/43/12 6/47/6
f 18/46/18 24/54/24 19/58/19 8/50/8
f 19/58/19 24/54/24 17/61/17 7/62/7
f 19/58/19 32/56/32 31/52/31 8/50/8
f 20/63/20 28/68/28 27/72/27 13/79/13
f 20/63/20 33/57/33 32/56/32 19/58/19
f 26/86/26 38/89/38 41/84/41 29/85/29
f 27/23/27 39/22/39 38/16/38 26/20/26
f 28/27/28 40/31/40 39/22/39 27/23/27
f 29/85/29 41/84/41 40/75/40 28/78/28
f 30/9/30 34/10/34 37/2/37 33/6/33
f 31/13/31 35/15/35 34/10/34 30/9/30
f 32/37/32 36/38/36 35/32/35 31/36/31
f 33/44/33 37/49/37 36/38/36 32/37/32
f 34/10/34 42/11/42 45/3/45 37/2/37
f 35/15/35 43/14/43 42/11/42 34/10/34
f 36/38/36 44/40/44 43/33/43 35/32/35
f 37/49/37 45/48/45 44/40/44 36/38/36
f 38/89/38 46/88/46 49/83/49 41/84/41
f 39/22/39 47/24/47 46/19/46 38/16/38
f 40/31/40 48/30/48 47/24/47 39/22/39
f 41/84/41 49/83/49 48/77/48 40/75/40
f 42/11/42 50/8/50 53/7/53 45/3/45
f 43/14/43 51/12/51 50/8/50 42/11/42
f 44/40/44 52/41/52 51/39/51 43/33/43
f 45/48/45 53/42/53 52/41/52 44/40/44
f 46/88/46 54/82/54 57/81/57 49/83/49
f 47/24/47 55/25/55 54/21/54 46/19/46
f 48/30/48 56/26/56 55/25/55 47/24/47
f 49/83/49 57/81/57 56/80/56 48/77/48
f 51/97/51 52/95/52 53/91/53 50/93/50
f 55/92/55 56/96/56 57/94/57 54/90/54
