# Exported from Wings 3D 2.2.4
mtllib ./portal.mtl
o Torus1
#128 vertices, 128 faces
v 1.44045000 3.5561831e-20 3.3894057e-18
v 1.36976807 -0.20576807 3.9118014e-18
v 1.16400000 -0.29100000 3.9118014e-18
v 1.10579964 -0.23745636 5.5840568e-19
v 1.07382437 -3.8234743e-17 -1.0008681e-18
v 1.10579964 0.23745636 5.5840568e-19
v 1.16400000 0.29100000 3.9118014e-18
v 1.36976807 0.20576807 3.9118014e-18
v 1.33080227 3.5561831e-20 0.55123635
v 1.26550069 -0.20576807 0.52418755
v 1.07539578 -0.29100000 0.44544352
v 1.02162566 -0.23745636 0.42317120
v 0.99208436 -3.8234743e-17 0.41093480
v 1.02162566 0.23745636 0.42317120
v 1.07539578 0.29100000 0.44544352
v 1.26550069 0.20576807 0.52418755
v 1.01855196 3.5561831e-20 1.01855196
v 0.96857229 -0.20576807 0.96857229
v 0.82307229 -0.29100000 0.82307229
v 0.78191843 -0.23745636 0.78191843
v 0.75930849 -3.8234743e-17 0.75930849
v 0.78191843 0.23745636 0.78191843
v 0.82307229 0.29100000 0.82307229
v 0.96857229 0.20576807 0.96857229
v 0.55123635 3.5561831e-20 1.33080227
v 0.52418755 -0.20576807 1.26550069
v 0.44544352 -0.29100000 1.07539578
v 0.42317120 -0.23745636 1.02162566
v 0.41093480 -3.8234743e-17 0.99208436
v 0.42317120 0.23745636 1.02162566
v 0.44544352 0.29100000 1.07539578
v 0.52418755 0.20576807 1.26550069
v 1.0116620e-16 3.5561831e-20 1.44045000
v 9.7529848e-17 -0.20576807 1.36976807
v 8.4930187e-17 -0.29100000 1.16400000
v 8.7387589e-17 -0.23745636 1.10579964
v 8.6861998e-17 -3.8234743e-17 1.07382437
v 8.7387589e-17 0.23745636 1.10579964
v 8.4930187e-17 0.29100000 1.16400000
v 9.7529848e-17 0.20576807 1.36976807
v -0.55123635 3.5561831e-20 1.33080227
v -0.52418755 -0.20576807 1.26550069
v -0.44544352 -0.29100000 1.07539578
v -0.42317120 -0.23745636 1.02162566
v -0.41093480 -3.8234743e-17 0.99208436
v -0.42317120 0.23745636 1.02162566
v -0.44544352 0.29100000 1.07539578
v -0.52418755 0.20576807 1.26550069
v -1.01855196 3.5561831e-20 1.01855196
v -0.96857229 -0.20576807 0.96857229
v -0.82307229 -0.29100000 0.82307229
v -0.78191843 -0.23745636 0.78191843
v -0.75930849 -3.8234743e-17 0.75930849
v -0.78191843 0.23745636 0.78191843
v -0.82307229 0.29100000 0.82307229
v -0.96857229 0.20576807 0.96857229
v -1.33080227 3.5561831e-20 0.55123635
v -1.26550069 -0.20576807 0.52418755
v -1.07539578 -0.29100000 0.44544352
v -1.02162566 -0.23745636 0.42317120
v -0.99208436 -3.8234743e-17 0.41093480
v -1.02162566 0.23745636 0.42317120
v -1.07539578 0.29100000 0.44544352
v -1.26550069 0.20576807 0.52418755
v -1.44045000 3.5561831e-20 1.7979365e-16
v -1.36976807 -0.20576807 1.7166001e-16
v -1.16400000 -0.29100000 1.4646069e-16
v -1.10579964 -0.23745636 1.3597981e-16
v -1.07382437 -3.8234743e-17 1.3050469e-16
v -1.10579964 0.23745636 1.3597981e-16
v -1.16400000 0.29100000 1.4646069e-16
v -1.36976807 0.20576807 1.7166001e-16
v -1.33080227 3.5561831e-20 -0.55123635
v -1.26550069 -0.20576807 -0.52418755
v -1.07539578 -0.29100000 -0.44544352
v -1.02162566 -0.23745636 -0.42317120
v -0.99208436 -3.8234743e-17 -0.41093480
v -1.02162566 0.23745636 -0.42317120
v -1.07539578 0.29100000 -0.44544352
v -1.26550069 0.20576807 -0.52418755
v -1.01855196 3.5561831e-20 -1.01855196
v -0.96857229 -0.20576807 -0.96857229
v -0.82307229 -0.29100000 -0.82307229
v -0.78191843 -0.23745636 -0.78191843
v -0.75930849 -3.8234743e-17 -0.75930849
v -0.78191843 0.23745636 -0.78191843
v -0.82307229 0.29100000 -0.82307229
v -0.96857229 0.20576807 -0.96857229
v -0.55123635 3.5561831e-20 -1.33080227
v -0.52418755 -0.20576807 -1.26550069
v -0.44544352 -0.29100000 -1.07539578
v -0.42317120 -0.23745636 -1.02162566
v -0.41093480 -3.8234743e-17 -0.99208436
v -0.42317120 0.23745636 -1.02162566
v -0.44544352 0.29100000 -1.07539578
v -0.52418755 0.20576807 -1.26550069
v -2.5164230e-16 3.5561831e-20 -1.44045000
v -2.3796657e-16 -0.20576807 -1.36976807
v -2.0016759e-16 -0.29100000 -1.16400000
v -1.8345521e-16 -0.23745636 -1.10579964
v -1.7614912e-16 -3.8234743e-17 -1.07382437
v -1.8345521e-16 0.23745636 -1.10579964
v -2.0016759e-16 0.29100000 -1.16400000
v -2.3796657e-16 0.20576807 -1.36976807
v 0.55123635 3.5561831e-20 -1.33080227
v 0.52418755 -0.20576807 -1.26550069
v 0.44544352 -0.29100000 -1.07539578
v 0.42317120 -0.23745636 -1.02162566
v 0.41093480 -3.8234743e-17 -0.99208436
v 0.42317120 0.23745636 -1.02162566
v 0.44544352 0.29100000 -1.07539578
v 0.52418755 0.20576807 -1.26550069
v 1.01855196 3.5561831e-20 -1.01855196
v 0.96857229 -0.20576807 -0.96857229
v 0.82307229 -0.29100000 -0.82307229
v 0.78191843 -0.23745636 -0.78191843
v 0.75930849 -3.8234743e-17 -0.75930849
v 0.78191843 0.23745636 -0.78191843
v 0.82307229 0.29100000 -0.82307229
v 0.96857229 0.20576807 -0.96857229
v 1.33080227 3.5561831e-20 -0.55123635
v 1.26550069 -0.20576807 -0.52418755
v 1.07539578 -0.29100000 -0.44544352
v 1.02162566 -0.23745636 -0.42317120
v 0.99208436 -3.8234743e-17 -0.41093480
v 1.02162566 0.23745636 -0.42317120
v 1.07539578 0.29100000 -0.44544352
v 1.26550069 0.20576807 -0.52418755
vt 0.0000000e+0 0.49499523
vt 1.8964578e-3 0.67369644
vt 1.4922385e-2 0.31690805
vt 2.1507886e-2 0.83186084
vt 4.6015025e-2 0.16059479
vt 5.9993164e-2 0.94802882
vt 6.6950254e-2 0.67135449
vt 6.9082640e-2 0.49751735
vt 7.4070412e-2 0.82427670
vt 7.9632216e-2 0.32398752
vt 9.1388978e-2 0.93474962
vt 9.2868869e-2 4.7542452e-2
vt 9.7884577e-2 0.17199163
vt 0.11882950 1.00000000
vt 0.11954027 0.98053161
vt 0.11983177 0.97254715
vt 0.12139310 0.92978134
vt 0.12139310 0.92978134
vt 0.12321277 6.3075692e-2
vt 0.12532274 0.82214606
vt 0.12532274 0.82214606
vt 0.13081537 0.67169950
vt 0.13081537 0.67169950
vt 0.13708391 0.50000000
vt 0.13708391 0.50000000
vt 0.14335246 0.32830050
vt 0.14335246 0.32830050
vt 0.14884509 0.17785394
vt 0.14884509 0.17785394
vt 0.15095505 0.93692431
vt 0.15277473 7.0218659e-2
vt 0.15277473 7.0218659e-2
vt 0.15433606 2.7452848e-2
vt 0.15462756 1.9468394e-2
vt 0.15533833 0.0000000e+0
vt 0.17628325 0.82800837
vt 0.18129896 0.95245755
vt 0.18277885 6.5250380e-2
vt 0.19453561 0.67601248
vt 0.20009742 0.17572330
vt 0.20508519 0.50248265
vt 0.20721757 0.32864551
vt 0.21417466 5.1971185e-2
vt 0.22815280 0.83940521
vt 0.25265994 0.16813916
vt 0.25924544 0.68309195
vt 0.26408735 0.74582164
vt 0.26491111 0.74549503
vt 0.27227137 0.32630356
vt 0.27398141 0.19035658
vt 0.27416783 0.50500477
vt 0.27542021 9.5767358e-2
vt 0.28311296 0.65017344
vt 0.28332072 0.84142827
vt 0.28386302 0.64973838
vt 0.28394853 0.84120259
vt 0.29041986 0.10383319
vt 0.29061513 0.18571659
vt 0.30444431 0.74577780
vt 0.30531456 0.74547870
vt 0.32039406 0.66563379
vt 0.32056814 0.82588697
vt 0.32122309 0.66514532
vt 0.32125995 0.82575806
vt 0.32160972 0.12060506
vt 0.32790261 0.28570253
vt 0.33072758 0.16967498
vt 0.33424300 0.12739841
vt 0.33438028 0.12747223
vt 0.33736317 0.56911252
vt 0.33774691 0.92237115
vt 0.33791934 0.56845845
vt 0.33811659 0.92231844
vt 0.34408216 0.27277875
vt 0.35353709 4.2410602e-2
vt 0.35508916 0.14900618
vt 0.35883804 5.8845627e-2
vt 0.35953815 0.14100049
vt 0.35953815 0.14100049
vt 0.36376366 0.13287463
vt 0.36589707 0.59768685
vt 0.36621866 0.89373489
vt 0.36656620 0.59695048
vt 0.36665351 0.89377818
vt 0.36757346 0.10115442
vt 0.38659880 0.23247984
vt 0.41798833 0.19062437
vt 0.41852563 0.51493674
vt 0.41888707 0.51399208
vt 0.41902687 0.97637047
vt 0.41922870 0.97646061
vt 0.42042396 0.37463498
vt 0.42565202 0.17655221
vt 0.42565202 0.17655221
vt 0.43316584 0.16239946
vt 0.43398488 0.55226569
vt 0.43440499 0.93900802
vt 0.43446540 0.55124784
vt 0.43461458 0.93915163
vt 0.43491429 0.35616891
vt 0.45077523 0.11313392
vt 0.46095059 5.5443994e-2
vt 0.46281074 3.4820176e-2
vt 0.47549867 0.29990510
vt 0.50965343 0.24460087
vt 0.51425482 0.49584659
vt 0.51429872 0.53625880
vt 0.51448744 0.49463933
vt 0.51461076 0.53499881
vt 0.51475342 0.95484039
vt 0.51479732 0.99525259
vt 0.51480353 0.95487386
vt 0.51492685 0.99523333
vt 0.51923365 0.22687430
vt 0.51923365 0.22687430
vt 0.52873936 0.20910765
vt 0.53726904 0.45042509
vt 0.54885825 0.42887317
vt 0.55604351 0.15011962
vt 0.58060290 8.5238610e-2
vt 0.58348362 0.36448199
vt 0.58801809 6.2967992e-2
vt 0.59464715 0.55209116
vt 0.59479972 0.55072104
vt 0.59494890 0.93862482
vt 0.59506726 0.93883350
vt 0.61002527 0.51472872
vt 0.61018559 0.51341205
vt 0.61052651 0.97616245
vt 0.61052722 0.97588058
vt 0.61627944 0.30349312
vt 0.62647135 0.28453972
vt 0.62647135 0.28453972
vt 0.63666325 0.26558631
vt 0.66276078 0.59609449
vt 0.66283348 0.59736430
vt 0.66284809 0.89292218
vt 0.66315507 0.89341233
vt 0.66492460 0.50611144
vt 0.66945908 0.20459744
vt 0.67233979 0.48384083
vt 0.69129771 0.56755423
vt 0.69130523 0.56872804
vt 0.69149496 0.92141422
vt 0.69168897 0.92198667
vt 0.69689918 0.41895982
vt 0.70408444 0.14020627
vt 0.70815434 0.66411460
vt 0.70819121 0.82472735
vt 0.70848400 0.66521222
vt 0.70865808 0.82546539
vt 0.71567366 0.11865435
vt 0.72409974 0.74439396
vt 0.72420333 0.35997178
vt 0.72460783 0.74532139
vt 0.73370904 0.34220514
vt 0.73370904 0.34220514
vt 0.74328926 0.32447857
vt 0.74546577 0.64867008
vt 0.74555127 0.84013429
vt 0.74573142 0.64967091
vt 0.74593918 0.84092574
vt 0.76450319 0.74437763
vt 0.76496479 0.74527755
vt 0.77744402 0.26917434
vt 0.79013196 0.53425926
vt 0.79199211 0.51363544
vt 0.80216746 0.45594551
vt 0.81802840 0.21291052
vt 0.81977686 0.40667998
vt 0.82729067 0.39252723
vt 0.82729067 0.39252723
vt 0.83251874 0.19444446
vt 0.83495436 0.37845507
vt 0.86634390 0.33659959
vt 0.88536924 0.46792502
vt 0.88917903 0.43620481
vt 0.89340454 0.42807894
vt 0.89340454 0.42807894
vt 0.89410465 0.51023381
vt 0.89785353 0.42007326
vt 0.89940561 0.52666883
vt 0.90886053 0.29630069
vt 0.91856242 0.44160721
vt 0.91869969 0.44168102
vt 0.92221512 0.39940445
vt 0.92504009 0.28337691
vt 0.93133298 0.44847438
vt 0.96232756 0.38336285
vt 0.96252283 0.46524624
vt 0.97752249 0.47331208
vt 0.97896128 0.37872286
vn 1.00000000 4.9272660e-16 -2.7622552e-16
vn 0.72638062 -0.68729266 -1.5762473e-16
vn -0.17270791 -0.98497308 2.4844664e-17
vn -0.88594477 -0.46379076 5.2371923e-17
vn -1.00000000 -3.5681348e-16 -3.5681348e-17
vn -0.88594477 0.46379076 -2.9926813e-17
vn -0.17270791 0.98497308 4.1407773e-18
vn 0.72638062 0.68729266 -1.6915825e-16
vn 0.92387953 5.6738214e-16 0.38268343
vn 0.67108819 -0.68729266 0.27797383
vn -0.15956131 -0.98497308 -6.6092458e-2
vn -0.81850624 -0.46379076 -0.33903638
vn -0.92387953 -4.2103990e-16 -0.38268343
vn -0.81850624 0.46379076 -0.33903638
vn -0.15956131 0.98497308 -6.6092458e-2
vn 0.67108819 0.68729266 0.27797383
vn 0.70710678 6.5696880e-16 0.70710678
vn 0.51362866 -0.68729266 0.51362866
vn -0.12212294 -0.98497308 -0.12212294
vn -0.62645755 -0.46379076 -0.62645755
vn -0.70710678 -3.5681348e-16 -0.70710678
vn -0.62645755 0.46379076 -0.62645755
vn -0.12212294 0.98497308 -0.12212294
vn 0.51362866 0.68729266 0.51362866
vn 0.38268343 5.8231325e-16 0.92387953
vn 0.27797383 -0.68729266 0.67108819
vn -6.6092458e-2 -0.98497308 -0.15956131
vn -0.33903638 -0.46379076 -0.81850624
vn -0.38268343 -2.9972332e-16 -0.92387953
vn -0.33903638 0.46379076 -0.81850624
vn -6.6092458e-2 0.98497308 -0.15956131
vn 0.27797383 0.68729266 0.67108819
vn -2.9862218e-17 5.0765771e-16 1.00000000
vn -1.5378022e-17 -0.68729266 0.72638062
vn 8.2815547e-18 -0.98497308 -0.17270791
vn -1.4963407e-17 -0.46379076 -0.88594477
vn -1.4272539e-17 -2.7831451e-16 -1.00000000
vn 0.0000000e+0 0.46379076 -0.88594477
vn 0.0000000e+0 0.98497308 -0.17270791
vn -2.3067034e-17 0.68729266 0.72638062
vn -0.38268343 6.4203769e-16 0.92387953
vn -0.27797383 -0.68729266 0.67108819
vn 6.6092458e-2 -0.98497308 -0.15956131
vn 0.33903638 -0.46379076 -0.81850624
vn 0.38268343 -3.9963110e-16 -0.92387953
vn 0.33903638 0.46379076 -0.81850624
vn 6.6092458e-2 0.98497308 -0.15956131
vn -0.27797383 0.68729266 0.67108819
vn -0.70710678 6.8683101e-16 0.70710678
vn -0.51362866 -0.68729266 0.51362866
vn 0.12212294 -0.98497308 -0.12212294
vn 0.62645755 -0.46379076 -0.62645755
vn 0.70710678 -4.4244871e-16 -0.70710678
vn 0.62645755 0.46379076 -0.62645755
vn 0.12212294 0.98497308 -0.12212294
vn -0.51362866 0.68729266 0.51362866
vn -0.92387953 5.6738214e-16 0.38268343
vn -0.67108819 -0.68729266 0.27797383
vn 0.15956131 -0.98497308 -6.6092458e-2
vn 0.81850624 -0.46379076 -0.33903638
vn 0.92387953 -3.1399586e-16 -0.38268343
vn 0.81850624 0.46379076 -0.33903638
vn 0.15956131 0.98497308 -6.6092458e-2
vn -0.67108819 0.68729266 0.27797383
vn -1.00000000 3.8820883e-16 5.2258882e-17
vn -0.72638062 -0.68729266 0.0000000e+0
vn 0.17270791 -0.98497308 8.2815547e-18
vn 0.88594477 -0.46379076 2.9926813e-17
vn 1.00000000 -1.2845285e-16 -4.9953887e-17
vn 0.88594477 0.46379076 -6.7335330e-17
vn 0.17270791 0.98497308 2.8985441e-17
vn -0.72638062 0.68729266 7.6890112e-17
vn -0.92387953 3.8820883e-16 -0.38268343
vn -0.67108819 -0.68729266 -0.27797383
vn 0.15956131 -0.98497308 6.6092458e-2
vn 0.81850624 -0.46379076 0.33903638
vn 0.92387953 -9.2771504e-17 0.38268343
vn 0.81850624 0.46379076 0.33903638
vn 0.15956131 0.98497308 6.6092458e-2
vn -0.67108819 0.68729266 -0.27797383
vn -0.70710678 6.7189991e-16 -0.70710678
vn -0.51362866 -0.68729266 -0.51362866
vn 0.12212294 -0.98497308 0.12212294
vn 0.62645755 -0.46379076 0.62645755
vn 0.70710678 -1.7840674e-16 0.70710678
vn 0.62645755 0.46379076 0.62645755
vn 0.12212294 0.98497308 0.12212294
vn -0.51362866 0.68729266 -0.51362866
vn -0.38268343 6.7189991e-16 -0.92387953
vn -0.27797383 -0.68729266 -0.67108819
vn 6.6092458e-2 -0.98497308 0.15956131
vn 0.33903638 -0.46379076 0.81850624
vn 0.38268343 -9.9907774e-17 0.92387953
vn 0.33903638 0.46379076 0.81850624
vn 6.6092458e-2 0.98497308 0.15956131
vn -0.27797383 0.68729266 -0.67108819
vn -2.2396664e-16 5.0765771e-16 -1.00000000
vn -1.2302418e-16 -0.68729266 -0.72638062
vn 7.4533992e-17 -0.98497308 0.17270791
vn 9.7262143e-17 -0.46379076 0.88594477
vn 5.7090156e-17 -7.1362696e-18 1.00000000
vn 1.0474385e-16 0.46379076 0.88594477
vn 7.8674770e-17 0.98497308 0.17270791
vn -1.2302418e-16 0.68729266 -0.72638062
vn 0.38268343 5.2258882e-16 -0.92387953
vn 0.27797383 -0.68729266 -0.67108819
vn -6.6092458e-2 -0.98497308 0.15956131
vn -0.33903638 -0.46379076 0.81850624
vn -0.38268343 -4.2817617e-17 0.92387953
vn -0.33903638 0.46379076 0.81850624
vn -6.6092458e-2 0.98497308 0.15956131
vn 0.27797383 0.68729266 -0.67108819
vn 0.70710678 5.0765771e-16 -0.70710678
vn 0.51362866 -0.68729266 -0.51362866
vn -0.12212294 -0.98497308 0.12212294
vn -0.62645755 -0.46379076 0.62645755
vn -0.70710678 -9.9907774e-17 0.70710678
vn -0.62645755 0.46379076 0.62645755
vn -0.12212294 0.98497308 0.12212294
vn 0.51362866 0.68729266 -0.51362866
vn 0.92387953 4.7779549e-16 -0.38268343
vn 0.67108819 -0.68729266 -0.27797383
vn -0.15956131 -0.98497308 6.6092458e-2
vn -0.81850624 -0.46379076 0.33903638
vn -0.92387953 -1.7840674e-16 0.38268343
vn -0.81850624 0.46379076 0.33903638
vn -0.15956131 0.98497308 6.6092458e-2
vn 0.67108819 0.68729266 -0.27797383
g Torus1_portal
usemtl portal
s 1
f 1/39/1 9/41/9 10/51/10 2/46/2
f 1/39/1 121/36/121 128/21/128 8/23/8
f 2/48/2 10/55/10 11/63/11 3/60/3
f 2/46/2 122/44/122 121/36/121 1/39/1
f 3/139/3 11/117/11 12/118/12 4/141/4
f 3/60/3 123/64/123 122/56/122 2/48/2
f 4/141/4 12/118/12 13/121/13 5/146/5
f 4/141/4 124/167/124 123/166/123 3/139/3
f 5/146/5 13/121/13 14/131/14 6/154/6
f 5/146/5 125/168/125 124/167/124 4/141/4
f 6/154/6 14/131/14 15/132/15 7/156/7
f 6/154/6 126/170/126 125/168/125 5/146/5
f 7/155/7 15/150/15 16/161/16 8/164/8
f 7/156/7 127/171/127 126/170/126 6/154/6
f 8/23/8 16/24/16 9/41/9 1/39/1
f 8/164/8 128/162/128 127/151/127 7/155/7
f 9/41/9 17/42/17 18/49/18 10/51/10
f 10/55/10 18/72/18 19/83/19 11/63/11
f 11/117/11 19/92/19 20/100/20 12/118/12
f 12/118/12 20/100/20 21/104/21 13/121/13
f 13/121/13 21/104/21 22/105/22 14/131/14
f 14/131/14 22/105/22 23/115/23 15/132/15
f 15/150/15 23/136/23 24/143/24 16/161/16
f 16/24/16 24/27/24 17/42/17 9/41/9
f 17/42/17 25/40/25 26/45/26 18/49/18
f 18/72/18 26/89/26 27/98/27 19/83/19
f 19/92/19 27/66/27 28/74/28 20/100/20
f 20/100/20 28/74/28 29/86/29 21/104/21
f 21/104/21 29/86/29 30/87/30 22/105/22
f 22/105/22 30/87/30 31/93/31 23/115/23
f 23/136/23 31/123/31 32/127/32 24/143/24
f 24/27/24 32/29/32 25/40/25 17/42/17
f 25/40/25 33/38/33 34/43/34 26/45/26
f 26/89/26 34/108/34 35/109/35 27/98/27
f 27/66/27 35/50/35 36/58/36 28/74/28
f 28/74/28 36/58/36 37/67/37 29/86/29
f 29/86/29 37/67/37 38/76/38 30/87/30
f 30/87/30 38/76/38 39/79/39 31/93/31
f 31/123/31 39/107/39 40/106/40 32/127/32
f 32/29/32 40/31/40 33/38/33 25/40/25
f 33/38/33 41/34/41 42/35/42 34/43/34
f 34/108/34 42/128/42 43/124/43 35/109/35
f 35/50/35 43/52/43 44/57/44 36/58/36
f 36/58/36 44/57/44 45/65/45 37/67/37
f 37/67/37 45/65/45 46/68/46 38/76/38
f 38/76/38 46/68/46 47/69/47 39/79/39
f 39/107/39 47/96/47 48/88/48 40/106/40
f 40/31/40 48/33/48 41/34/41 33/38/33
f 41/34/41 49/19/49 50/12/50 42/35/42
f 42/128/42 50/142/50 51/135/51 43/124/43
f 43/52/43 51/75/51 52/77/52 44/57/44
f 44/57/44 52/77/52 53/85/53 45/65/45
f 45/65/45 53/85/53 54/80/54 46/68/46
f 46/68/46 54/80/54 55/78/55 47/69/47
f 47/96/47 55/81/55 56/70/56 48/88/48
f 48/33/48 56/32/56 49/19/49 41/34/41
f 49/19/49 57/13/57 58/5/58 50/12/50
f 50/142/50 58/159/58 59/148/59 51/135/51
f 51/75/51 59/103/59 60/102/60 52/77/52
f 52/77/52 60/102/60 61/101/61 53/85/53
f 53/85/53 61/101/61 62/95/62 54/80/54
f 54/80/54 62/95/62 63/94/63 55/78/55
f 55/81/55 63/61/63 64/53/64 56/70/56
f 56/32/56 64/28/64 57/13/57 49/19/49
f 57/13/57 65/10/65 66/3/66 58/5/58
f 58/159/58 66/163/66 67/153/67 59/148/59
f 59/103/59 67/122/67 68/120/68 60/102/60
f 60/102/60 68/120/68 69/119/69 61/101/61
f 61/101/61 69/119/69 70/116/70 62/95/62
f 62/95/62 70/116/70 71/114/71 63/94/63
f 63/61/63 71/59/71 72/47/72 64/53/64
f 64/28/64 72/26/72 65/10/65 57/13/57
f 65/10/65 73/8/73 74/1/74 66/3/66
f 66/163/66 74/160/74 75/149/75 67/153/67
f 67/122/67 75/152/75 76/147/76 68/120/68
f 68/120/68 76/147/76 77/140/77 69/119/69
f 69/119/69 77/140/77 78/134/78 70/116/70
f 70/116/70 78/134/78 79/133/79 71/114/71
f 71/59/71 79/62/79 80/54/80 72/47/72
f 72/26/72 80/25/80 73/8/73 65/10/65
f 73/8/73 81/7/81 82/2/82 74/1/74
f 74/160/74 82/144/82 83/137/83 75/149/75
f 75/152/75 83/173/83 84/169/84 76/147/76
f 76/147/76 84/169/84 85/165/85 77/140/77
f 77/140/77 85/165/85 86/158/86 78/134/78
f 78/134/78 86/158/86 87/157/87 79/133/79
f 79/62/79 87/82/87 88/71/88 80/54/80
f 80/25/80 88/22/88 81/7/81 73/8/73
f 81/7/81 89/9/89 90/4/90 82/2/82
f 82/144/82 90/130/90 91/125/91 83/137/83
f 83/173/83 91/187/91 92/183/92 84/169/84
f 84/169/84 92/183/92 93/175/93 85/165/85
f 85/165/85 93/175/93 94/174/94 86/158/86
f 86/158/86 94/174/94 95/172/95 87/157/87
f 87/82/87 95/97/95 96/90/96 88/71/88
f 88/22/88 96/20/96 89/9/89 81/7/81
f 89/9/89 97/11/97 98/6/98 90/4/90
f 90/130/90 98/113/98 99/112/99 91/125/91
f 91/187/91 99/192/99 100/189/100 92/183/92
f 92/183/92 100/189/100 101/186/101 93/175/93
f 93/175/93 101/186/101 102/181/102 94/174/94
f 94/174/94 102/181/102 103/179/103 95/172/95
f 95/97/95 103/110/103 104/111/104 96/90/96
f 96/20/96 104/18/104 97/11/97 89/9/89
f 97/11/97 105/15/105 106/14/106 98/6/98
f 98/113/98 106/91/106 107/99/107 99/112/99
f 99/192/99 107/191/107 108/190/108 100/189/100
f 100/189/100 108/190/108 109/188/109 101/186/101
f 101/186/101 109/188/109 110/185/110 102/181/102
f 102/181/102 110/185/110 111/184/111 103/179/103
f 103/110/103 111/126/111 112/129/112 104/111/104
f 104/18/104 112/16/112 105/15/105 97/11/97
f 105/15/105 113/30/113 114/37/114 106/14/106
f 106/91/106 114/73/114 115/84/115 107/99/107
f 107/191/107 115/182/115 116/180/116 108/190/108
f 108/190/108 116/180/116 117/176/117 109/188/109
f 109/188/109 117/176/117 118/177/118 110/185/110
f 110/185/110 118/177/118 119/178/119 111/184/111
f 111/126/111 119/138/119 120/145/120 112/129/112
f 112/16/112 120/17/120 113/30/113 105/15/105
f 113/30/113 121/36/121 122/44/122 114/37/114
f 114/73/114 122/56/122 123/64/123 115/84/115
f 115/182/115 123/166/123 124/167/124 116/180/116
f 116/180/116 124/167/124 125/168/125 117/176/117
f 117/176/117 125/168/125 126/170/126 118/177/118
f 118/177/118 126/170/126 127/171/127 119/178/119
f 119/138/119 127/151/127 128/162/128 120/145/120
f 120/17/120 128/21/128 121/36/121 113/30/113
